<svg width="17" height="15" viewBox="0 0 17 15" fill="none" xmlns="http://www.w3.org/2000/svg">
<path d="M12.4001 13.7422C12.4001 13.6536 12.4158 13.5833 12.447 13.5312C12.4835 13.474 12.5304 13.4141 12.5876 13.3516C12.6606 13.2786 12.7387 13.2109 12.822 13.1484C12.9054 13.0807 12.9861 13.0104 13.0642 12.9375C13.4392 12.5938 13.7725 12.2135 14.0642 11.7969C14.3559 11.375 14.6007 10.9297 14.7986 10.4609C14.9965 9.99219 15.1449 9.50781 15.2439 9.00781C15.3481 8.50781 15.4001 8.00521 15.4001 7.5C15.4001 7 15.3481 6.5 15.2439 6C15.1449 5.49479 14.9939 5.00781 14.7908 4.53906C14.5929 4.0651 14.3481 3.61719 14.0564 3.19531C13.7699 2.77344 13.4392 2.39323 13.0642 2.05469C12.9861 1.98177 12.9054 1.91406 12.822 1.85156C12.7387 1.78385 12.6606 1.71354 12.5876 1.64062C12.5251 1.57812 12.4783 1.52083 12.447 1.46875C12.4158 1.41667 12.4001 1.34375 12.4001 1.25C12.4001 1.10938 12.447 0.992188 12.5408 0.898438C12.6397 0.804688 12.7595 0.757812 12.9001 0.757812C12.9626 0.757812 13.0173 0.768229 13.0642 0.789062C13.1111 0.804688 13.1606 0.830729 13.2126 0.867188C13.447 1.01823 13.6788 1.21094 13.908 1.44531C14.1371 1.67969 14.3533 1.93229 14.5564 2.20312C14.7647 2.46875 14.9548 2.74219 15.1267 3.02344C15.2986 3.30469 15.4444 3.57031 15.5642 3.82031C15.8403 4.39844 16.0486 4.9974 16.1892 5.61719C16.3298 6.23177 16.4001 6.85938 16.4001 7.5C16.4001 8.13542 16.3298 8.76562 16.1892 9.39062C16.0486 10.0104 15.8403 10.6068 15.5642 11.1797C15.4444 11.4245 15.2986 11.6901 15.1267 11.9766C14.9548 12.2578 14.7647 12.5339 14.5564 12.8047C14.3481 13.0703 14.1293 13.3203 13.9001 13.5547C13.671 13.7891 13.4418 13.9818 13.2126 14.1328C13.1554 14.1693 13.1033 14.1979 13.0564 14.2188C13.0147 14.2344 12.9626 14.2422 12.9001 14.2422C12.7647 14.2422 12.6475 14.1927 12.5486 14.0938C12.4496 13.9948 12.4001 13.8776 12.4001 13.7422ZM3.69702 10.5H1.90015C1.69702 10.5 1.50431 10.4609 1.32202 10.3828C1.13973 10.3047 0.978271 10.1979 0.837646 10.0625C0.70223 9.92188 0.595459 9.76042 0.517334 9.57812C0.439209 9.39583 0.400146 9.20312 0.400146 9V6C0.400146 5.79688 0.439209 5.60417 0.517334 5.42188C0.595459 5.23958 0.70223 5.08073 0.837646 4.94531C0.978271 4.80469 1.13973 4.69531 1.32202 4.61719C1.50431 4.53906 1.69702 4.5 1.90015 4.5H3.69702L6.1189 2.07031C6.19181 1.9974 6.27254 1.94531 6.36108 1.91406C6.45483 1.8776 6.55119 1.85938 6.65015 1.85938C6.86369 1.85938 7.04077 1.92969 7.1814 2.07031C7.32723 2.21094 7.40015 2.38802 7.40015 2.60156V12.3984C7.40015 12.5026 7.37931 12.599 7.33765 12.6875C7.30119 12.776 7.2465 12.8568 7.17358 12.9297C7.10588 12.9974 7.02515 13.0521 6.9314 13.0938C6.84285 13.1302 6.7491 13.1484 6.65015 13.1484C6.44181 13.1484 6.26473 13.0755 6.1189 12.9297L3.69702 10.5ZM10.4314 11.9453C10.4314 11.8568 10.4444 11.7891 10.4705 11.7422C10.5017 11.6953 10.546 11.638 10.6033 11.5703C10.8897 11.2474 11.1449 10.9375 11.3689 10.6406C11.5929 10.3438 11.7804 10.0391 11.9314 9.72656C12.0824 9.40885 12.197 9.07031 12.2751 8.71094C12.3585 8.35156 12.4001 7.94792 12.4001 7.5C12.4001 7.05208 12.3585 6.64844 12.2751 6.28906C12.197 5.92969 12.0824 5.59375 11.9314 5.28125C11.7804 4.96354 11.5929 4.65625 11.3689 4.35938C11.1449 4.0625 10.8897 3.7526 10.6033 3.42969C10.546 3.36198 10.5017 3.30469 10.4705 3.25781C10.4444 3.21094 10.4314 3.14323 10.4314 3.05469C10.4314 2.91927 10.4809 2.80469 10.5798 2.71094C10.684 2.61198 10.8038 2.5625 10.9392 2.5625C11.0173 2.5625 11.0772 2.57292 11.1189 2.59375C11.1606 2.60938 11.2126 2.64062 11.2751 2.6875C11.4314 2.80729 11.585 2.95573 11.7361 3.13281C11.8923 3.30469 12.0382 3.48958 12.1736 3.6875C12.3142 3.88542 12.4418 4.08854 12.5564 4.29688C12.671 4.5 12.7673 4.69271 12.8455 4.875C13.2153 5.70833 13.4001 6.58333 13.4001 7.5C13.4001 8.41667 13.2153 9.29167 12.8455 10.125C12.7725 10.2917 12.6762 10.4818 12.5564 10.6953C12.4418 10.9036 12.3142 11.112 12.1736 11.3203C12.033 11.5234 11.8845 11.7135 11.7283 11.8906C11.5772 12.0677 11.4262 12.2083 11.2751 12.3125C11.2179 12.349 11.1632 12.3802 11.1111 12.4062C11.0642 12.4271 11.0069 12.4375 10.9392 12.4375C10.8038 12.4375 10.684 12.3906 10.5798 12.2969C10.4809 12.1979 10.4314 12.0807 10.4314 11.9453ZM6.40015 11.7891V3.20312L4.25171 5.35156C4.15275 5.45052 4.03556 5.5 3.90015 5.5H1.90015C1.76473 5.5 1.64754 5.54948 1.54858 5.64844C1.44963 5.7474 1.40015 5.86458 1.40015 6V9C1.40015 9.13542 1.44963 9.2526 1.54858 9.35156C1.64754 9.45052 1.76473 9.5 1.90015 9.5H3.90015C4.03556 9.5 4.15275 9.54948 4.25171 9.64844L6.40015 11.7891ZM8.4939 10.0391C8.4939 9.96615 8.50171 9.90885 8.51733 9.86719C8.53817 9.82552 8.56942 9.77604 8.61108 9.71875C8.73088 9.53646 8.84025 9.36198 8.93921 9.19531C9.03817 9.02344 9.1215 8.85156 9.18921 8.67969C9.25692 8.5026 9.309 8.32031 9.34546 8.13281C9.38192 7.9401 9.40015 7.72917 9.40015 7.5C9.40015 7.27604 9.38192 7.06771 9.34546 6.875C9.309 6.68229 9.25692 6.5 9.18921 6.32812C9.1215 6.15104 9.03817 5.97917 8.93921 5.8125C8.84025 5.64062 8.73088 5.46354 8.61108 5.28125C8.56942 5.22396 8.53817 5.17448 8.51733 5.13281C8.50171 5.09115 8.4939 5.03385 8.4939 4.96094C8.4939 4.82552 8.54338 4.70833 8.64233 4.60938C8.74129 4.51042 8.85848 4.46094 8.9939 4.46094C9.08244 4.46094 9.15535 4.47656 9.21265 4.50781C9.26994 4.53906 9.32723 4.58594 9.38452 4.64844C9.55119 4.83073 9.69702 5.03646 9.82202 5.26562C9.94702 5.48958 10.0512 5.72917 10.1345 5.98438C10.2231 6.23438 10.2882 6.48958 10.3298 6.75C10.3767 7.01042 10.4001 7.26042 10.4001 7.5C10.4001 7.72917 10.3767 7.97656 10.3298 8.24219C10.2882 8.5026 10.2231 8.76302 10.1345 9.02344C10.0512 9.27865 9.94442 9.52344 9.81421 9.75781C9.68921 9.98698 9.54598 10.1849 9.38452 10.3516C9.27515 10.4714 9.14494 10.5312 8.9939 10.5312C8.85848 10.5312 8.74129 10.4844 8.64233 10.3906C8.54338 10.2917 8.4939 10.1745 8.4939 10.0391Z" fill="white"/>
</svg>
