<svg width="17" height="12" viewBox="0 0 17 12" fill="none" xmlns="http://www.w3.org/2000/svg">
<path d="M8.40015 1.5C7.83765 1.5 7.28035 1.55729 6.72827 1.67188C6.1814 1.78125 5.65015 1.94531 5.13452 2.16406C4.6189 2.3776 4.12671 2.64062 3.65796 2.95312C3.18921 3.26562 2.75692 3.6224 2.36108 4.02344C2.16317 4.22135 1.98608 4.42969 1.82983 4.64844C1.67358 4.86198 1.50692 5.07292 1.32983 5.28125C1.26733 5.35417 1.20744 5.40885 1.15015 5.44531C1.09285 5.48177 1.01473 5.5 0.915771 5.5C0.775146 5.5 0.655355 5.45312 0.556396 5.35938C0.462646 5.26042 0.415771 5.14062 0.415771 5C0.415771 4.90104 0.444417 4.80729 0.501709 4.71875C0.913167 4.0625 1.41056 3.47396 1.9939 2.95312C2.58244 2.43229 3.22306 1.98958 3.91577 1.625C4.60848 1.26042 5.33504 0.981771 6.09546 0.789062C6.86108 0.596354 7.62931 0.5 8.40015 0.5C9.16577 0.5 9.9314 0.596354 10.697 0.789062C11.4626 0.981771 12.1892 1.26042 12.8767 1.625C13.5694 1.98958 14.2074 2.43229 14.7908 2.95312C15.3793 3.47396 15.8819 4.0625 16.2986 4.71875C16.3559 4.80729 16.3845 4.90104 16.3845 5C16.3845 5.14062 16.335 5.26042 16.2361 5.35938C16.1423 5.45312 16.0251 5.5 15.8845 5.5C15.796 5.5 15.7179 5.48177 15.6501 5.44531C15.5876 5.40365 15.5278 5.34896 15.4705 5.28125C15.4132 5.20833 15.3585 5.13542 15.3064 5.0625C15.2595 4.98438 15.2074 4.90885 15.1501 4.83594C15.0408 4.6901 14.9262 4.55208 14.8064 4.42188C14.6866 4.28646 14.5642 4.15365 14.4392 4.02344C14.0382 3.6224 13.6033 3.26562 13.1345 2.95312C12.671 2.64062 12.1814 2.3776 11.6658 2.16406C11.1554 1.94531 10.6241 1.78125 10.072 1.67188C9.51994 1.55729 8.96265 1.5 8.40015 1.5ZM8.40015 4.5C8.01473 4.5 7.63192 4.54167 7.25171 4.625C6.8715 4.70833 6.50431 4.83073 6.15015 4.99219C5.80119 5.14844 5.46785 5.34115 5.15015 5.57031C4.83765 5.79948 4.55379 6.05729 4.29858 6.34375C4.17358 6.48438 4.059 6.63281 3.95483 6.78906C3.85588 6.94531 3.7491 7.09896 3.63452 7.25C3.57202 7.32812 3.50952 7.39062 3.44702 7.4375C3.38973 7.47917 3.309 7.5 3.20483 7.5C3.06942 7.5 2.95223 7.45052 2.85327 7.35156C2.75431 7.2526 2.70483 7.13542 2.70483 7C2.70483 6.91667 2.72567 6.83333 2.76733 6.75C3.03296 6.25521 3.3715 5.80729 3.78296 5.40625C4.19442 5.00521 4.65015 4.66406 5.15015 4.38281C5.65015 4.10156 6.17619 3.88542 6.72827 3.73438C7.28556 3.57812 7.84285 3.5 8.40015 3.5C8.95223 3.5 9.50692 3.57812 10.0642 3.73438C10.6215 3.88542 11.1501 4.10156 11.6501 4.38281C12.1501 4.66406 12.6059 5.00521 13.0173 5.40625C13.4288 5.80729 13.7673 6.25521 14.033 6.75C14.0746 6.83333 14.0955 6.91667 14.0955 7C14.0955 7.13542 14.046 7.2526 13.947 7.35156C13.8481 7.45052 13.7309 7.5 13.5955 7.5C13.4913 7.5 13.408 7.47917 13.3455 7.4375C13.2882 7.39062 13.2283 7.32812 13.1658 7.25C13.0512 7.09896 12.9418 6.94531 12.8376 6.78906C12.7387 6.63281 12.6267 6.48438 12.5017 6.34375C12.2465 6.05729 11.96 5.79948 11.6423 5.57031C11.3298 5.34115 10.9965 5.14844 10.6423 4.99219C10.2934 4.83073 9.92879 4.70833 9.54858 4.625C9.16838 4.54167 8.78556 4.5 8.40015 4.5ZM8.40015 7.5C8.10848 7.5 7.82983 7.54167 7.56421 7.625C7.29858 7.70312 7.04077 7.81771 6.79077 7.96875C6.65015 8.05729 6.52775 8.14583 6.42358 8.23438C6.32463 8.32292 6.23348 8.41667 6.15015 8.51562C6.07202 8.61458 5.9965 8.72135 5.92358 8.83594C5.85067 8.94531 5.77254 9.07031 5.68921 9.21094C5.63713 9.29948 5.57463 9.36979 5.50171 9.42188C5.42879 9.47396 5.34025 9.5 5.23608 9.5C5.09546 9.5 4.97567 9.45052 4.87671 9.35156C4.78296 9.2526 4.73608 9.13281 4.73608 8.99219C4.73608 8.92448 4.75171 8.85417 4.78296 8.78125C4.934 8.44792 5.13973 8.14062 5.40015 7.85938C5.66056 7.57812 5.95223 7.33854 6.27515 7.14062C6.59806 6.9375 6.94181 6.78125 7.3064 6.67188C7.67098 6.55729 8.03556 6.5 8.40015 6.5C8.77515 6.5 9.14494 6.55469 9.50952 6.66406C9.8741 6.77344 10.2153 6.92708 10.533 7.125C10.8559 7.32292 11.1449 7.5625 11.4001 7.84375C11.6554 8.125 11.8611 8.4375 12.0173 8.78125C12.0486 8.85417 12.0642 8.92448 12.0642 8.99219C12.0642 9.1276 12.0147 9.2474 11.9158 9.35156C11.8168 9.45052 11.6996 9.5 11.5642 9.5C11.46 9.5 11.3715 9.47396 11.2986 9.42188C11.2257 9.36979 11.1632 9.29948 11.1111 9.21094C11.0278 9.07031 10.9496 8.94531 10.8767 8.83594C10.8038 8.72135 10.7257 8.61458 10.6423 8.51562C10.559 8.41667 10.4653 8.32292 10.3611 8.23438C10.2621 8.14583 10.1423 8.05729 10.0017 7.96875C9.75692 7.81771 9.4991 7.70312 9.22827 7.625C8.96265 7.54167 8.6866 7.5 8.40015 7.5ZM7.15015 10.5C7.15015 10.3281 7.184 10.1667 7.25171 10.0156C7.31942 9.86458 7.40796 9.73438 7.51733 9.625C7.63192 9.51042 7.76473 9.41927 7.91577 9.35156C8.06681 9.28385 8.22827 9.25 8.40015 9.25C8.57202 9.25 8.73348 9.28385 8.88452 9.35156C9.03556 9.41927 9.16577 9.51042 9.27515 9.625C9.38973 9.73438 9.48088 9.86458 9.54858 10.0156C9.61629 10.1667 9.65015 10.3281 9.65015 10.5C9.65015 10.6719 9.61629 10.8333 9.54858 10.9844C9.48088 11.1354 9.38973 11.2682 9.27515 11.3828C9.16577 11.4922 9.03556 11.5807 8.88452 11.6484C8.73348 11.7161 8.57202 11.75 8.40015 11.75C8.22827 11.75 8.06681 11.7161 7.91577 11.6484C7.76473 11.5807 7.63192 11.4922 7.51733 11.3828C7.40796 11.2682 7.31942 11.1354 7.25171 10.9844C7.184 10.8333 7.15015 10.6719 7.15015 10.5Z" fill="white"/>
</svg>
